<svg xmlns="http://www.w3.org/2000/svg" width="900" height="176" viewBox="0 0 900 176" role="img" aria-labelledby="title desc">
<title id="title">Abhishek&#x27;s public GitHub activity</title>
<desc id="desc">Public repository, commit and pull request counts from GitHub; contributions cover the past year.</desc>
<g font-family="Inter, Segoe UI, Arial, sans-serif">
<rect x=".5" y=".5" width="899" height="175" rx="16" fill="#FFFFFF" stroke="#DDDDDD"/><text x="25" y="29" font-size="11" fill="#555555" font-weight="600" letter-spacing="1.6">PUBLIC GITHUB ACTIVITY</text><text x="875" y="29" font-size="11" fill="#555555" font-weight="400" text-anchor="end">Updated 2026-10-05 UTC</text><text x="25" y="85" font-size="38" fill="#111111" font-weight="600" letter-spacing="-1">22</text><text x="25" y="113" font-size="9" fill="#555555" font-weight="500" letter-spacing=".9">PUBLIC ORIGINAL REPOS</text><text x="223" y="85" font-size="38" fill="#111111" font-weight="600" letter-spacing="-1">318</text><text x="223" y="113" font-size="9" fill="#555555" font-weight="500" letter-spacing=".9">PUBLIC COMMITS / YEAR</text><text x="421" y="85" font-size="38" fill="#111111" font-weight="600" letter-spacing="-1">11</text><text x="421" y="113" font-size="9" fill="#555555" font-weight="500" letter-spacing=".9">PUBLIC PRs / YEAR</text><rect x="660" y="52" width="19" height="9" rx="2" fill="#333333" opacity="0.13"/><rect x="660" y="65" width="19" height="9" rx="2" fill="#333333" opacity="0.13"/><rect x="660" y="78" width="19" height="9" rx="2" fill="#333333" opacity="0.13"/><rect x="660" y="91" width="19" height="9" rx="2" fill="#333333" opacity="0.13"/><rect x="660" y="104" width="19" height="9" rx="2" fill="#333333" opacity="0.13"/><rect x="660" y="117" width="19" height="9" rx="2" fill="#333333" opacity="0.13"/><rect x="660" y="130" width="19" height="9" rx="2" fill="#333333" opacity="0.13"/><rect x="685" y="52" width="19" height="9" rx="2" fill="#333333" opacity="0.13"/><rect x="685" y="65" width="19" height="9" rx="2" fill="#333333" opacity="0.13"/><rect x="685" y="78" width="19" height="9" rx="2" fill="#333333" opacity="0.13"/><rect x="685" y="91" width="19" height="9" rx="2" fill="#333333" opacity="0.13"/><rect x="685" y="104" width="19" height="9" rx="2" fill="#333333" opacity="0.13"/><rect x="685" y="117" width="19" height="9" rx="2" fill="#333333" opacity="0.13"/><rect x="685" y="130" width="19" height="9" rx="2" fill="#333333" opacity="0.13"/><rect x="710" y="52" width="19" height="9" rx="2" fill="#333333" opacity="0.13"/><rect x="710" y="65" width="19" height="9" rx="2" fill="#333333" opacity="0.13"/><rect x="710" y="78" width="19" height="9" rx="2" fill="#333333" opacity="0.13"/><rect x="710" y="91" width="19" height="9" rx="2" fill="#333333" opacity="0.13"/><rect x="710" y="104" width="19" height="9" rx="2" fill="#333333" opacity="0.13"/><rect x="710" y="117" width="19" height="9" rx="2" fill="#333333" opacity="0.13"/><rect x="710" y="130" width="19" height="9" rx="2" fill="#333333" opacity="0.13"/><rect x="735" y="52" width="19" height="9" rx="2" fill="#333333" opacity="0.13"/><rect x="735" y="65" width="19" height="9" rx="2" fill="#333333" opacity="0.13"/><rect x="735" y="78" width="19" height="9" rx="2" fill="#333333" opacity="0.13"/><rect x="735" y="91" width="19" height="9" rx="2" fill="#333333" opacity="0.13"/><rect x="735" y="104" width="19" height="9" rx="2" fill="#333333" opacity="0.13"/><rect x="735" y="117" width="19" height="9" rx="2" fill="#333333" opacity="0.13"/><rect x="735" y="130" width="19" height="9" rx="2" fill="#333333" opacity="0.13"/><rect x="760" y="52" width="19" height="9" rx="2" fill="#333333" opacity="0.13"/><rect x="760" y="65" width="19" height="9" rx="2" fill="#333333" opacity="0.67"/><rect x="760" y="78" width="19" height="9" rx="2" fill="#333333" opacity="0.13"/><rect x="760" y="91" width="19" height="9" rx="2" fill="#333333" opacity="0.13"/><rect x="760" y="104" width="19" height="9" rx="2" fill="#333333" opacity="1.00"/><rect x="760" y="117" width="19" height="9" rx="2" fill="#333333" opacity="1.00"/><rect x="760" y="130" width="19" height="9" rx="2" fill="#333333" opacity="0.67"/><text x="660" y="154" font-size="10" fill="#555555" font-weight="400" >Recent contribution activity</text><text x="25" y="154" font-size="11" fill="#555555" font-weight="400" >Public repositories and contribution activity over the past year.</text>
</g>
</svg>
